<svg width="300" height="371" viewBox="0 0 300 371" fill="none" xmlns="http://www.w3.org/2000/svg">
<path fill-rule="evenodd" clip-rule="evenodd" d="M0.27584 187.08C-0.105032 187.48 -0.0895715 188.113 0.310372 188.494L102.111 285.44C102.511 285.821 103.148 285.802 103.526 285.4C156.886 228.587 154.712 139.394 98.6374 85.2505C98.2401 84.8669 97.6032 84.8791 97.2224 85.2791L0.27584 187.08ZM29.766 186.73C29.3851 187.13 29.4005 187.763 29.8005 188.144L86.0296 241.692C86.4295 242.073 87.066 242.055 87.4419 241.65C116.839 210.007 115.635 160.646 84.7265 130.474C84.3313 130.089 83.6947 130.101 83.3138 130.501L29.766 186.73Z" fill="#212650"/>
<path fill-rule="evenodd" clip-rule="evenodd" d="M129.289 54.6523C129.055 54.2663 129.101 53.7608 129.412 53.4337L133.293 49.349C141.44 40.7777 155.08 40.3853 162.788 49.3542C229.068 126.475 231.847 240.359 169.41 320.627C162.141 329.962 148.5 330.237 139.936 322.074L129.453 312.071C129.12 311.753 129.054 311.237 129.282 310.838C188.879 206.737 187.257 150.393 129.289 54.6523Z" fill="#212650"/>
<path fill-rule="evenodd" clip-rule="evenodd" d="M186.339 15.2556C186.096 14.8647 186.144 14.3473 186.465 14.0177L191.795 8.54843C202.657 -2.59427 220.844 -3.10446 231.121 8.55523C319.495 108.812 323.199 256.861 239.95 361.21C230.258 373.346 212.071 373.703 200.652 363.091L186.506 349.931C186.163 349.611 186.095 349.083 186.333 348.679C265.951 213.155 263.782 139.892 186.339 15.2556Z" fill="#212650"/>
</svg>
