<svg width="1000" height="154" viewBox="0 0 1000 154" fill="none" xmlns="http://www.w3.org/2000/svg">
<path fill-rule="evenodd" clip-rule="evenodd" d="M0.275841 76.312C-0.105032 75.9121 -0.0895721 75.2791 0.310371 74.8982L41.5327 35.6415C41.9327 35.2606 42.569 35.2783 42.9431 35.6846C64.4506 59.038 63.5667 95.2832 40.9434 117.56C40.5498 117.948 39.9134 117.934 39.5326 117.534L0.275841 76.312ZM12.4618 76.456C12.0809 76.0561 12.0964 75.4231 12.4963 75.0422L34.8849 53.7213C35.2848 53.3404 35.9206 53.3566 36.2894 53.7677C47.8998 66.7133 47.4172 86.5026 35.1879 98.8667C34.7995 99.2593 34.1636 99.2445 33.7828 98.8445L12.4618 76.456Z" fill="#212650"/>
<path fill-rule="evenodd" clip-rule="evenodd" d="M53.424 130.228C53.1909 130.614 53.2382 131.118 53.549 131.445L54.844 132.808C58.2108 136.351 63.8481 136.513 67.0337 132.806C94.4258 100.934 95.574 53.8681 69.7703 20.6949C66.766 16.8369 61.1288 16.7233 57.5893 20.097L53.5897 23.9134C53.2566 24.2312 53.1898 24.7459 53.4179 25.1458C77.7317 67.7692 77.0756 91.02 53.424 130.228Z" fill="#212650"/>
<path fill-rule="evenodd" clip-rule="evenodd" d="M77.0126 146.502C76.7702 146.893 76.8185 147.41 77.1397 147.739L79.0215 149.67C83.5106 154.275 91.027 154.486 95.2744 149.667C131.797 108.233 133.328 47.0478 98.9232 3.92268C94.9175 -1.09282 87.4012 -1.24042 82.6818 3.14533L77.1809 8.2631C76.8374 8.5827 76.7691 9.10953 77.0063 9.51439C109.58 65.1163 108.698 95.3594 77.0126 146.502Z" fill="#212650"/>
<path d="M182.012 106.771C179.361 106.771 177.181 106.005 175.472 104.473C173.822 102.882 172.997 100.938 172.997 98.6399C172.997 96.2829 173.822 94.3089 175.472 92.718C177.181 91.127 179.361 90.3315 182.012 90.3315C184.605 90.3315 186.726 91.127 188.376 92.718C190.085 94.3089 190.94 96.2829 190.94 98.6399C190.94 100.938 190.085 102.882 188.376 104.473C186.726 106.005 184.605 106.771 182.012 106.771Z" fill="#212650"/>
<path d="M152.251 64.9641C154.019 62.2536 156.228 60.1323 158.88 58.6003C161.531 57.0093 164.478 56.2139 167.718 56.2139V72.2118H163.564C159.793 72.2118 156.965 73.0367 155.079 74.6866C153.194 76.2776 152.251 79.1059 152.251 83.1717V106.064H137.137V56.7442H152.251V64.9641Z" fill="#212650"/>
<path d="M978.458 93.6008H999.848V106.063H961.576V94.0427L982.082 69.2061H961.753V56.7437H999.406V68.7642L978.458 93.6008Z" fill="#212650"/>
<path d="M956.343 80.6068C956.343 82.021 956.255 83.4941 956.078 85.0261H921.872C922.108 88.0902 923.08 90.4472 924.789 92.0971C926.557 93.688 928.708 94.4835 931.241 94.4835C935.012 94.4835 937.635 92.8925 939.108 89.7106H955.194C954.369 92.9515 952.867 95.8682 950.686 98.4609C948.565 101.054 945.884 103.086 942.643 104.56C939.402 106.033 935.779 106.769 931.772 106.769C926.94 106.769 922.638 105.738 918.867 103.676C915.096 101.613 912.15 98.6671 910.029 94.837C907.907 91.007 906.847 86.5287 906.847 81.4023C906.847 76.2759 907.878 71.7976 909.94 67.9676C912.061 64.1375 915.008 61.1913 918.779 59.1289C922.55 57.0666 926.881 56.0354 931.772 56.0354C936.545 56.0354 940.787 57.0371 944.499 59.0405C948.212 61.044 951.099 63.9018 953.161 67.614C955.282 71.3262 956.343 75.6572 956.343 80.6068ZM940.875 76.6294C940.875 74.0368 939.992 71.9744 938.224 70.4424C936.456 68.9104 934.246 68.1443 931.595 68.1443C929.061 68.1443 926.91 68.8809 925.143 70.354C923.434 71.8271 922.373 73.9189 921.961 76.6294H940.875Z" fill="#212650"/>
<path d="M846.857 81.315C846.857 76.2475 847.8 71.7987 849.686 67.9686C851.63 64.1385 854.252 61.1923 857.552 59.13C860.852 57.0676 864.535 56.0365 868.6 56.0365C871.841 56.0365 874.788 56.7141 877.439 58.0693C880.15 59.4246 882.271 61.2513 883.803 63.5493V40.6572H898.917V106.063H883.803V98.9923C882.389 101.349 880.356 103.235 877.704 104.649C875.112 106.063 872.077 106.77 868.6 106.77C864.535 106.77 860.852 105.739 857.552 103.677C854.252 101.555 851.63 98.5798 849.686 94.7497C847.8 90.8607 846.857 86.3825 846.857 81.315ZM883.803 81.4034C883.803 77.6322 882.742 74.6565 880.621 72.4763C878.559 70.2961 876.025 69.206 873.02 69.206C870.015 69.206 867.451 70.2961 865.33 72.4763C863.268 74.5976 862.237 77.5438 862.237 81.315C862.237 85.0861 863.268 88.0913 865.33 90.3304C867.451 92.5106 870.015 93.6007 873.02 93.6007C876.025 93.6007 878.559 92.5106 880.621 90.3304C882.742 88.1502 883.803 85.1745 883.803 81.4034Z" fill="#212650"/>
<path d="M820.356 56.2139C826.131 56.2139 830.727 58.0994 834.144 61.8706C837.621 65.5828 839.359 70.7092 839.359 77.2498V106.064H824.333V79.2827C824.333 75.983 823.479 73.4197 821.77 71.5931C820.061 69.7664 817.763 68.8531 814.876 68.8531C811.989 68.8531 809.691 69.7664 807.982 71.5931C806.273 73.4197 805.419 75.983 805.419 79.2827V106.064H790.305V56.7442H805.419V63.2848C806.951 61.1046 809.013 59.3958 811.606 58.1584C814.198 56.862 817.115 56.2139 820.356 56.2139Z" fill="#212650"/>
<path d="M727.312 81.3139C727.312 76.2464 728.254 71.7976 730.14 67.9676C732.084 64.1375 734.707 61.1913 738.006 59.1289C741.306 57.0666 744.989 56.0354 749.055 56.0354C752.531 56.0354 755.566 56.7425 758.158 58.1567C760.81 59.5709 762.843 61.427 764.257 63.725V56.7425H779.371V106.062H764.257V99.0796C762.784 101.378 760.722 103.234 758.07 104.648C755.477 106.062 752.443 106.769 748.966 106.769C744.959 106.769 741.306 105.738 738.006 103.676C734.707 101.554 732.084 98.5787 730.14 94.7486C728.254 90.8596 727.312 86.3814 727.312 81.3139ZM764.257 81.4023C764.257 77.6311 763.196 74.6555 761.075 72.4753C759.013 70.2951 756.479 69.205 753.474 69.205C750.469 69.205 747.906 70.2951 745.784 72.4753C743.722 74.5965 742.691 77.5428 742.691 81.3139C742.691 85.0851 743.722 88.0902 745.784 90.3293C747.906 92.5095 750.469 93.5996 753.474 93.5996C756.479 93.5996 759.013 92.5095 761.075 90.3293C763.196 88.1491 764.257 85.1735 764.257 81.4023Z" fill="#212650"/>
<path d="M700.809 56.2139C706.584 56.2139 711.18 58.0994 714.597 61.8706C718.074 65.5828 719.812 70.7092 719.812 77.2498V106.064H704.787V79.2827C704.787 75.983 703.932 73.4197 702.223 71.5931C700.515 69.7664 698.217 68.8531 695.329 68.8531C692.442 68.8531 690.144 69.7664 688.435 71.5931C686.726 73.4197 685.872 75.983 685.872 79.2827V106.064H670.758V56.7442H685.872V63.2848C687.404 61.1046 689.466 59.3958 692.059 58.1584C694.652 56.862 697.568 56.2139 700.809 56.2139Z" fill="#212650"/>
<path d="M648.066 64.9641C649.834 62.2536 652.044 60.1323 654.695 58.6003C657.347 57.0093 660.293 56.2139 663.534 56.2139V72.2118H659.38C655.609 72.2118 652.78 73.0367 650.895 74.6866C649.009 76.2776 648.066 79.1059 648.066 83.1717V106.064H632.952V56.7442H648.066V64.9641Z" fill="#212650"/>
<path d="M624.98 80.6068C624.98 82.021 624.891 83.4941 624.715 85.0261H590.509C590.745 88.0902 591.717 90.4472 593.426 92.0971C595.194 93.688 597.344 94.4835 599.878 94.4835C603.649 94.4835 606.271 92.8925 607.744 89.7106H623.831C623.006 92.9515 621.503 95.8682 619.323 98.4609C617.202 101.054 614.521 103.086 611.28 104.56C608.039 106.033 604.415 106.769 600.408 106.769C595.577 106.769 591.275 105.738 587.504 103.676C583.733 101.613 580.787 98.6671 578.665 94.837C576.544 91.007 575.483 86.5287 575.483 81.4023C575.483 76.2759 576.515 71.7976 578.577 67.9676C580.698 64.1375 583.644 61.1913 587.416 59.1289C591.187 57.0666 595.518 56.0354 600.408 56.0354C605.181 56.0354 609.424 57.0371 613.136 59.0405C616.848 61.044 619.736 63.9018 621.798 67.614C623.919 71.3262 624.98 75.6572 624.98 80.6068ZM609.512 76.6294C609.512 74.0368 608.628 71.9744 606.861 70.4424C605.093 68.9104 602.883 68.1443 600.232 68.1443C597.698 68.1443 595.547 68.8809 593.779 70.354C592.071 71.8271 591.01 73.9189 590.597 76.6294H609.512Z" fill="#212650"/>
<path d="M567.576 44.0149V106.062H552.462V80.5185H528.951V106.062H513.837V44.0149H528.951V68.3211H552.462V44.0149H567.576Z" fill="#212650"/>
<path d="M461.281 106.769C456.449 106.769 452.088 105.738 448.199 103.676C444.369 101.613 441.335 98.6671 439.095 94.837C436.915 91.007 435.825 86.5287 435.825 81.4023C435.825 76.3348 436.945 71.886 439.184 68.056C441.423 64.167 444.487 61.1913 448.376 59.1289C452.265 57.0666 456.625 56.0354 461.457 56.0354C466.289 56.0354 470.649 57.0666 474.538 59.1289C478.427 61.1913 481.492 64.167 483.731 68.056C485.97 71.886 487.089 76.3348 487.089 81.4023C487.089 86.4698 485.94 90.948 483.642 94.837C481.403 98.6671 478.31 101.613 474.362 103.676C470.473 105.738 466.112 106.769 461.281 106.769ZM461.281 93.688C464.168 93.688 466.613 92.6274 468.617 90.5061C470.679 88.3848 471.71 85.3502 471.71 81.4023C471.71 77.4544 470.708 74.4198 468.705 72.2985C466.76 70.1772 464.345 69.1166 461.457 69.1166C458.511 69.1166 456.066 70.1772 454.121 72.2985C452.177 74.3608 451.204 77.3954 451.204 81.4023C451.204 85.3502 452.147 88.3848 454.033 90.5061C455.977 92.6274 458.393 93.688 461.281 93.688Z" fill="#212650"/>
<path d="M416.137 64.9641C417.904 62.2536 420.114 60.1323 422.766 58.6003C425.417 57.0093 428.363 56.2139 431.604 56.2139V72.2118H427.45C423.679 72.2118 420.85 73.0367 418.965 74.6866C417.079 76.2776 416.137 79.1059 416.137 83.1717V106.064H401.022V56.7442H416.137V64.9641Z" fill="#212650"/>
<path d="M338.03 81.315C338.03 76.2475 338.973 71.7987 340.859 67.9686C342.803 64.1385 345.425 61.1923 348.725 59.13C352.025 57.0676 355.708 56.0365 359.773 56.0365C363.014 56.0365 365.96 56.7141 368.612 58.0693C371.322 59.4246 373.444 61.2513 374.976 63.5493V40.6572H390.09V106.063H374.976V98.9923C373.562 101.349 371.529 103.235 368.877 104.649C366.284 106.063 363.25 106.77 359.773 106.77C355.708 106.77 352.025 105.739 348.725 103.677C345.425 101.555 342.803 98.5798 340.859 94.7497C338.973 90.8607 338.03 86.3825 338.03 81.315ZM374.976 81.4034C374.976 77.6322 373.915 74.6565 371.794 72.4763C369.732 70.2961 367.198 69.206 364.193 69.206C361.188 69.206 358.624 70.2961 356.503 72.4763C354.441 74.5976 353.41 77.5438 353.41 81.315C353.41 85.0861 354.441 88.0913 356.503 90.3304C358.624 92.5106 361.188 93.6007 364.193 93.6007C367.198 93.6007 369.732 92.5106 371.794 90.3304C373.915 88.1502 374.976 85.1745 374.976 81.4034Z" fill="#212650"/>
<path d="M333.064 80.6068C333.064 82.021 332.975 83.4941 332.799 85.0261H298.593C298.829 88.0902 299.801 90.4472 301.51 92.0971C303.278 93.688 305.428 94.4835 307.962 94.4835C311.733 94.4835 314.355 92.8925 315.828 89.7106H331.915C331.09 92.9515 329.587 95.8682 327.407 98.4609C325.286 101.054 322.605 103.086 319.364 104.56C316.123 106.033 312.499 106.769 308.492 106.769C303.661 106.769 299.359 105.738 295.588 103.676C291.817 101.613 288.871 98.6671 286.749 94.837C284.628 91.007 283.567 86.5287 283.567 81.4023C283.567 76.2759 284.599 71.7976 286.661 67.9676C288.782 64.1375 291.728 61.1913 295.5 59.1289C299.271 57.0666 303.602 56.0354 308.492 56.0354C313.265 56.0354 317.508 57.0371 321.22 59.0405C324.932 61.044 327.82 63.9018 329.882 67.614C332.003 71.3262 333.064 75.6572 333.064 80.6068ZM317.596 76.6294C317.596 74.0368 316.712 71.9744 314.945 70.4424C313.177 68.9104 310.967 68.1443 308.316 68.1443C305.782 68.1443 303.631 68.8809 301.863 70.354C300.155 71.8271 299.094 73.9189 298.681 76.6294H317.596Z" fill="#212650"/>
<path d="M278.702 63.9902C278.702 67.5846 277.877 70.8844 276.227 73.8895C274.577 76.8357 272.043 79.2221 268.626 81.0488C265.208 82.8754 260.966 83.7888 255.898 83.7888H246.529V106.062H231.415V44.0149H255.898C260.848 44.0149 265.031 44.8693 268.449 46.5781C271.867 48.2869 274.43 50.6439 276.139 53.649C277.847 56.6541 278.702 60.1012 278.702 63.9902ZM254.749 71.7682C257.636 71.7682 259.787 71.0906 261.201 69.7353C262.615 68.3801 263.323 66.465 263.323 63.9902C263.323 61.5154 262.615 59.6004 261.201 58.2451C259.787 56.8898 257.636 56.2122 254.749 56.2122H246.529V71.7682H254.749Z" fill="#212650"/>
</svg>
